<mxfile host="Electron" agent="Mozilla/5.0 (X11; Linux x86_64) AppleWebKit/537.36 (KHTML, like Gecko) draw.io/26.0.9 Chrome/128.0.6613.186 Electron/32.3.0 Safari/537.36" version="26.0.9" pages="4">
  <diagram name="1" id="raGk_D8FTLXwgUmbc4jt">
    <mxGraphModel dx="318" dy="492" grid="1" gridSize="10" guides="1" tooltips="1" connect="1" arrows="1" fold="1" page="1" pageScale="1" pageWidth="280" pageHeight="200" math="0" shadow="0">
      <root>
        <mxCell id="0" />
        <mxCell id="1" parent="0" />
        <mxCell id="GBhY2NrtECE3dPD_nef4-6" value="&lt;font style=&quot;font-size: 10px;&quot;&gt;== 3&lt;/font&gt;" style="edgeStyle=orthogonalEdgeStyle;rounded=0;orthogonalLoop=1;jettySize=auto;html=1;exitX=0.5;exitY=0;exitDx=0;exitDy=0;entryX=1;entryY=0.5;entryDx=0;entryDy=0;fillColor=#f5f5f5;strokeColor=#666666;" edge="1" parent="1" source="GBhY2NrtECE3dPD_nef4-3" target="U8iKYlKsDPHqWJgURIjQ-8">
          <mxGeometry relative="1" as="geometry">
            <Array as="points">
              <mxPoint x="60" y="40" />
              <mxPoint x="180" y="40" />
              <mxPoint x="180" y="70" />
            </Array>
          </mxGeometry>
        </mxCell>
        <mxCell id="9O1mxxfFyx1soMVcyxZJ-12" value="nums" style="text;html=1;align=center;verticalAlign=middle;whiteSpace=wrap;rounded=0;fontSize=10;" parent="1" vertex="1">
          <mxGeometry x="200" y="140" width="40" height="20" as="geometry" />
        </mxCell>
        <mxCell id="9O1mxxfFyx1soMVcyxZJ-17" value="3" style="text;html=1;align=center;verticalAlign=middle;whiteSpace=wrap;rounded=0;fillColor=#f5f5f5;strokeColor=#666666;fontSize=14;fontColor=#333333;" parent="1" vertex="1">
          <mxGeometry x="200" y="60" width="40" height="20" as="geometry" />
        </mxCell>
        <mxCell id="U8iKYlKsDPHqWJgURIjQ-1" value="2" style="text;html=1;align=center;verticalAlign=middle;whiteSpace=wrap;rounded=0;fillColor=#f5f5f5;strokeColor=#666666;fontSize=14;fontColor=#333333;" parent="1" vertex="1">
          <mxGeometry x="200" y="80" width="40" height="20" as="geometry" />
        </mxCell>
        <mxCell id="U8iKYlKsDPHqWJgURIjQ-2" value="2" style="text;html=1;align=center;verticalAlign=middle;whiteSpace=wrap;rounded=0;fillColor=#f5f5f5;strokeColor=#666666;fontSize=14;fontColor=#333333;" parent="1" vertex="1">
          <mxGeometry x="200" y="100" width="40" height="20" as="geometry" />
        </mxCell>
        <mxCell id="U8iKYlKsDPHqWJgURIjQ-8" value="0" style="text;html=1;align=center;verticalAlign=middle;whiteSpace=wrap;rounded=0;fontSize=10;" parent="1" vertex="1">
          <mxGeometry x="180" y="60" width="20" height="20" as="geometry" />
        </mxCell>
        <mxCell id="U8iKYlKsDPHqWJgURIjQ-9" value="1" style="text;html=1;align=center;verticalAlign=middle;whiteSpace=wrap;rounded=0;fontSize=10;" parent="1" vertex="1">
          <mxGeometry x="180" y="80" width="20" height="20" as="geometry" />
        </mxCell>
        <mxCell id="U8iKYlKsDPHqWJgURIjQ-10" value="2" style="text;html=1;align=center;verticalAlign=middle;whiteSpace=wrap;rounded=0;fontSize=10;" parent="1" vertex="1">
          <mxGeometry x="180" y="100" width="20" height="20" as="geometry" />
        </mxCell>
        <mxCell id="GBhY2NrtECE3dPD_nef4-1" value="3" style="text;html=1;align=center;verticalAlign=middle;whiteSpace=wrap;rounded=0;fillColor=#f5f5f5;strokeColor=#666666;fontSize=14;fontColor=#333333;" vertex="1" parent="1">
          <mxGeometry x="200" y="120" width="40" height="20" as="geometry" />
        </mxCell>
        <mxCell id="GBhY2NrtECE3dPD_nef4-2" value="start" style="text;html=1;align=center;verticalAlign=middle;whiteSpace=wrap;rounded=0;fontSize=10;" vertex="1" parent="1">
          <mxGeometry x="40" y="100" width="40" height="20" as="geometry" />
        </mxCell>
        <mxCell id="GBhY2NrtECE3dPD_nef4-3" value="0" style="text;html=1;align=center;verticalAlign=middle;whiteSpace=wrap;rounded=0;fillColor=#f5f5f5;strokeColor=#666666;fontSize=14;fontColor=#333333;" vertex="1" parent="1">
          <mxGeometry x="40" y="60" width="40" height="40" as="geometry" />
        </mxCell>
        <mxCell id="GBhY2NrtECE3dPD_nef4-4" value="end" style="text;html=1;align=center;verticalAlign=middle;whiteSpace=wrap;rounded=0;fontSize=10;" vertex="1" parent="1">
          <mxGeometry x="120" y="100" width="40" height="20" as="geometry" />
        </mxCell>
        <mxCell id="GBhY2NrtECE3dPD_nef4-5" value="0" style="text;html=1;align=center;verticalAlign=middle;whiteSpace=wrap;rounded=0;fillColor=#f5f5f5;strokeColor=#666666;fontSize=14;fontColor=#333333;" vertex="1" parent="1">
          <mxGeometry x="120" y="60" width="40" height="40" as="geometry" />
        </mxCell>
        <mxCell id="k2o_Ahp-FIfhCUQ5V5KA-1" value="3" style="text;html=1;align=center;verticalAlign=middle;whiteSpace=wrap;rounded=0;fontSize=10;" vertex="1" parent="1">
          <mxGeometry x="180" y="120" width="20" height="20" as="geometry" />
        </mxCell>
      </root>
    </mxGraphModel>
  </diagram>
  <diagram name="2" id="n18wLrkoHGik-XL6cvcX">
    <mxGraphModel dx="378" dy="586" grid="1" gridSize="10" guides="1" tooltips="1" connect="1" arrows="1" fold="1" page="1" pageScale="1" pageWidth="300" pageHeight="220" math="0" shadow="0">
      <root>
        <mxCell id="BhCWk8AywlorpmIAYKdQ-0" />
        <mxCell id="BhCWk8AywlorpmIAYKdQ-1" parent="BhCWk8AywlorpmIAYKdQ-0" />
        <mxCell id="ipkWSj1TQfdwe1tCOz28-1" style="edgeStyle=orthogonalEdgeStyle;rounded=0;orthogonalLoop=1;jettySize=auto;html=1;exitX=0.5;exitY=0;exitDx=0;exitDy=0;entryX=0;entryY=0.5;entryDx=0;entryDy=0;fillColor=#d5e8d4;strokeColor=#82b366;" edge="1" parent="BhCWk8AywlorpmIAYKdQ-1" source="BhCWk8AywlorpmIAYKdQ-14" target="BhCWk8AywlorpmIAYKdQ-4">
          <mxGeometry relative="1" as="geometry">
            <Array as="points">
              <mxPoint x="140" y="60" />
              <mxPoint x="180" y="60" />
              <mxPoint x="180" y="90" />
            </Array>
          </mxGeometry>
        </mxCell>
        <mxCell id="BhCWk8AywlorpmIAYKdQ-2" value="&lt;font style=&quot;font-size: 10px;&quot;&gt;!= 3&lt;/font&gt;" style="edgeStyle=orthogonalEdgeStyle;rounded=0;orthogonalLoop=1;jettySize=auto;html=1;exitX=0.5;exitY=0;exitDx=0;exitDy=0;entryX=0;entryY=0.5;entryDx=0;entryDy=0;fillColor=#dae8fc;strokeColor=#6c8ebf;" edge="1" parent="BhCWk8AywlorpmIAYKdQ-1" source="BhCWk8AywlorpmIAYKdQ-12" target="BhCWk8AywlorpmIAYKdQ-5">
          <mxGeometry relative="1" as="geometry">
            <Array as="points">
              <mxPoint x="60" y="40" />
              <mxPoint x="170" y="40" />
              <mxPoint x="170" y="110" />
            </Array>
          </mxGeometry>
        </mxCell>
        <mxCell id="BhCWk8AywlorpmIAYKdQ-3" value="nums" style="text;html=1;align=center;verticalAlign=middle;whiteSpace=wrap;rounded=0;fontSize=10;" vertex="1" parent="BhCWk8AywlorpmIAYKdQ-1">
          <mxGeometry x="200" y="160" width="40" height="20" as="geometry" />
        </mxCell>
        <mxCell id="BhCWk8AywlorpmIAYKdQ-4" value="2" style="text;html=1;align=center;verticalAlign=middle;whiteSpace=wrap;rounded=0;fillColor=#ffe6cc;strokeColor=#d79b00;fontSize=14;fontColor=#333333;" vertex="1" parent="BhCWk8AywlorpmIAYKdQ-1">
          <mxGeometry x="200" y="80" width="40" height="20" as="geometry" />
        </mxCell>
        <mxCell id="ipkWSj1TQfdwe1tCOz28-0" style="edgeStyle=orthogonalEdgeStyle;rounded=0;orthogonalLoop=1;jettySize=auto;html=1;exitX=1;exitY=0.5;exitDx=0;exitDy=0;entryX=1;entryY=0.5;entryDx=0;entryDy=0;fillColor=#ffe6cc;strokeColor=#d79b00;" edge="1" parent="BhCWk8AywlorpmIAYKdQ-1" source="BhCWk8AywlorpmIAYKdQ-5" target="BhCWk8AywlorpmIAYKdQ-4">
          <mxGeometry relative="1" as="geometry">
            <Array as="points">
              <mxPoint x="260" y="110" />
              <mxPoint x="260" y="90" />
            </Array>
          </mxGeometry>
        </mxCell>
        <mxCell id="BhCWk8AywlorpmIAYKdQ-5" value="2" style="text;html=1;align=center;verticalAlign=middle;whiteSpace=wrap;rounded=0;fillColor=#ffe6cc;strokeColor=#d79b00;fontSize=14;fontColor=#333333;" vertex="1" parent="BhCWk8AywlorpmIAYKdQ-1">
          <mxGeometry x="200" y="100" width="40" height="20" as="geometry" />
        </mxCell>
        <mxCell id="BhCWk8AywlorpmIAYKdQ-6" value="2" style="text;html=1;align=center;verticalAlign=middle;whiteSpace=wrap;rounded=0;fillColor=#f5f5f5;strokeColor=#666666;fontSize=14;fontColor=#333333;" vertex="1" parent="BhCWk8AywlorpmIAYKdQ-1">
          <mxGeometry x="200" y="120" width="40" height="20" as="geometry" />
        </mxCell>
        <mxCell id="BhCWk8AywlorpmIAYKdQ-7" value="0" style="text;html=1;align=center;verticalAlign=middle;whiteSpace=wrap;rounded=0;fontSize=10;" vertex="1" parent="BhCWk8AywlorpmIAYKdQ-1">
          <mxGeometry x="180" y="80" width="20" height="20" as="geometry" />
        </mxCell>
        <mxCell id="BhCWk8AywlorpmIAYKdQ-8" value="1" style="text;html=1;align=center;verticalAlign=middle;whiteSpace=wrap;rounded=0;fontSize=10;" vertex="1" parent="BhCWk8AywlorpmIAYKdQ-1">
          <mxGeometry x="180" y="100" width="20" height="20" as="geometry" />
        </mxCell>
        <mxCell id="BhCWk8AywlorpmIAYKdQ-9" value="2" style="text;html=1;align=center;verticalAlign=middle;whiteSpace=wrap;rounded=0;fontSize=10;" vertex="1" parent="BhCWk8AywlorpmIAYKdQ-1">
          <mxGeometry x="180" y="120" width="20" height="20" as="geometry" />
        </mxCell>
        <mxCell id="BhCWk8AywlorpmIAYKdQ-10" value="3" style="text;html=1;align=center;verticalAlign=middle;whiteSpace=wrap;rounded=0;fillColor=#f5f5f5;strokeColor=#666666;fontSize=14;fontColor=#333333;" vertex="1" parent="BhCWk8AywlorpmIAYKdQ-1">
          <mxGeometry x="200" y="140" width="40" height="20" as="geometry" />
        </mxCell>
        <mxCell id="BhCWk8AywlorpmIAYKdQ-11" value="start" style="text;html=1;align=center;verticalAlign=middle;whiteSpace=wrap;rounded=0;fontSize=10;" vertex="1" parent="BhCWk8AywlorpmIAYKdQ-1">
          <mxGeometry x="40" y="120" width="40" height="20" as="geometry" />
        </mxCell>
        <mxCell id="BhCWk8AywlorpmIAYKdQ-12" value="1" style="text;html=1;align=center;verticalAlign=middle;whiteSpace=wrap;rounded=0;fillColor=#dae8fc;strokeColor=#6c8ebf;fontSize=14;fontColor=#333333;" vertex="1" parent="BhCWk8AywlorpmIAYKdQ-1">
          <mxGeometry x="40" y="80" width="40" height="40" as="geometry" />
        </mxCell>
        <mxCell id="BhCWk8AywlorpmIAYKdQ-13" value="end" style="text;html=1;align=center;verticalAlign=middle;whiteSpace=wrap;rounded=0;fontSize=10;" vertex="1" parent="BhCWk8AywlorpmIAYKdQ-1">
          <mxGeometry x="120" y="120" width="40" height="20" as="geometry" />
        </mxCell>
        <mxCell id="BhCWk8AywlorpmIAYKdQ-14" value="0" style="text;html=1;align=center;verticalAlign=middle;whiteSpace=wrap;rounded=0;fillColor=#d5e8d4;strokeColor=#82b366;fontSize=14;fontColor=#333333;" vertex="1" parent="BhCWk8AywlorpmIAYKdQ-1">
          <mxGeometry x="120" y="80" width="40" height="40" as="geometry" />
        </mxCell>
        <mxCell id="xcEf0bUxHH3oUb2fKila-0" value="3" style="text;html=1;align=center;verticalAlign=middle;whiteSpace=wrap;rounded=0;fontSize=10;" vertex="1" parent="BhCWk8AywlorpmIAYKdQ-1">
          <mxGeometry x="180" y="140" width="20" height="20" as="geometry" />
        </mxCell>
      </root>
    </mxGraphModel>
  </diagram>
  <diagram name="3" id="nfGj8iRxWP74J8H8ul8T">
    <mxGraphModel dx="378" dy="586" grid="1" gridSize="10" guides="1" tooltips="1" connect="1" arrows="1" fold="1" page="1" pageScale="1" pageWidth="300" pageHeight="220" math="0" shadow="0">
      <root>
        <mxCell id="XXgtzVUXcdGJnIYN510m-0" />
        <mxCell id="XXgtzVUXcdGJnIYN510m-1" parent="XXgtzVUXcdGJnIYN510m-0" />
        <mxCell id="PVM8XjTIlV3mpjs9Ek7O-0" style="edgeStyle=orthogonalEdgeStyle;rounded=0;orthogonalLoop=1;jettySize=auto;html=1;exitX=0.5;exitY=0;exitDx=0;exitDy=0;entryX=0;entryY=0.5;entryDx=0;entryDy=0;fillColor=#d5e8d4;strokeColor=#82b366;" edge="1" parent="XXgtzVUXcdGJnIYN510m-1" source="XXgtzVUXcdGJnIYN510m-16" target="XXgtzVUXcdGJnIYN510m-6">
          <mxGeometry relative="1" as="geometry">
            <Array as="points">
              <mxPoint x="140" y="60" />
              <mxPoint x="180" y="60" />
              <mxPoint x="180" y="110" />
            </Array>
          </mxGeometry>
        </mxCell>
        <mxCell id="XXgtzVUXcdGJnIYN510m-3" value="nums" style="text;html=1;align=center;verticalAlign=middle;whiteSpace=wrap;rounded=0;fontSize=10;" vertex="1" parent="XXgtzVUXcdGJnIYN510m-1">
          <mxGeometry x="200" y="160" width="40" height="20" as="geometry" />
        </mxCell>
        <mxCell id="XXgtzVUXcdGJnIYN510m-4" value="2" style="text;html=1;align=center;verticalAlign=middle;whiteSpace=wrap;rounded=0;fillColor=#f5f5f5;strokeColor=#666666;fontSize=14;fontColor=#333333;" vertex="1" parent="XXgtzVUXcdGJnIYN510m-1">
          <mxGeometry x="200" y="80" width="40" height="20" as="geometry" />
        </mxCell>
        <mxCell id="XXgtzVUXcdGJnIYN510m-6" value="2" style="text;html=1;align=center;verticalAlign=middle;whiteSpace=wrap;rounded=0;fillColor=#ffe6cc;strokeColor=#d79b00;fontSize=14;fontColor=#333333;" vertex="1" parent="XXgtzVUXcdGJnIYN510m-1">
          <mxGeometry x="200" y="100" width="40" height="20" as="geometry" />
        </mxCell>
        <mxCell id="SBgoSYi1hS1eGvTm3t-C-0" style="edgeStyle=orthogonalEdgeStyle;rounded=0;orthogonalLoop=1;jettySize=auto;html=1;exitX=1;exitY=0.5;exitDx=0;exitDy=0;entryX=1;entryY=0.5;entryDx=0;entryDy=0;fillColor=#ffe6cc;strokeColor=#d79b00;" edge="1" parent="XXgtzVUXcdGJnIYN510m-1" source="XXgtzVUXcdGJnIYN510m-7" target="XXgtzVUXcdGJnIYN510m-6">
          <mxGeometry relative="1" as="geometry">
            <Array as="points">
              <mxPoint x="260" y="130" />
              <mxPoint x="260" y="110" />
            </Array>
          </mxGeometry>
        </mxCell>
        <mxCell id="XXgtzVUXcdGJnIYN510m-7" value="2" style="text;html=1;align=center;verticalAlign=middle;whiteSpace=wrap;rounded=0;fillColor=#ffe6cc;strokeColor=#d79b00;fontSize=14;fontColor=#333333;" vertex="1" parent="XXgtzVUXcdGJnIYN510m-1">
          <mxGeometry x="200" y="120" width="40" height="20" as="geometry" />
        </mxCell>
        <mxCell id="XXgtzVUXcdGJnIYN510m-8" value="0" style="text;html=1;align=center;verticalAlign=middle;whiteSpace=wrap;rounded=0;fontSize=10;" vertex="1" parent="XXgtzVUXcdGJnIYN510m-1">
          <mxGeometry x="180" y="80" width="20" height="20" as="geometry" />
        </mxCell>
        <mxCell id="XXgtzVUXcdGJnIYN510m-9" value="1" style="text;html=1;align=center;verticalAlign=middle;whiteSpace=wrap;rounded=0;fontSize=10;" vertex="1" parent="XXgtzVUXcdGJnIYN510m-1">
          <mxGeometry x="180" y="100" width="20" height="20" as="geometry" />
        </mxCell>
        <mxCell id="XXgtzVUXcdGJnIYN510m-10" value="2" style="text;html=1;align=center;verticalAlign=middle;whiteSpace=wrap;rounded=0;fontSize=10;" vertex="1" parent="XXgtzVUXcdGJnIYN510m-1">
          <mxGeometry x="180" y="120" width="20" height="20" as="geometry" />
        </mxCell>
        <mxCell id="XXgtzVUXcdGJnIYN510m-11" value="3" style="text;html=1;align=center;verticalAlign=middle;whiteSpace=wrap;rounded=0;fillColor=#f5f5f5;strokeColor=#666666;fontSize=14;fontColor=#333333;" vertex="1" parent="XXgtzVUXcdGJnIYN510m-1">
          <mxGeometry x="200" y="140" width="40" height="20" as="geometry" />
        </mxCell>
        <mxCell id="XXgtzVUXcdGJnIYN510m-12" value="start" style="text;html=1;align=center;verticalAlign=middle;whiteSpace=wrap;rounded=0;fontSize=10;" vertex="1" parent="XXgtzVUXcdGJnIYN510m-1">
          <mxGeometry x="40" y="120" width="40" height="20" as="geometry" />
        </mxCell>
        <mxCell id="xDBesKQUldG-tXwGwq2B-0" value="&lt;font style=&quot;font-size: 10px;&quot;&gt;!= 3&lt;/font&gt;" style="edgeStyle=orthogonalEdgeStyle;rounded=0;orthogonalLoop=1;jettySize=auto;html=1;exitX=0.5;exitY=0;exitDx=0;exitDy=0;entryX=0;entryY=0.5;entryDx=0;entryDy=0;fillColor=#dae8fc;strokeColor=#6c8ebf;" edge="1" parent="XXgtzVUXcdGJnIYN510m-1" source="XXgtzVUXcdGJnIYN510m-13" target="XXgtzVUXcdGJnIYN510m-7">
          <mxGeometry relative="1" as="geometry">
            <Array as="points">
              <mxPoint x="60" y="40" />
              <mxPoint x="170" y="40" />
              <mxPoint x="170" y="130" />
            </Array>
          </mxGeometry>
        </mxCell>
        <mxCell id="XXgtzVUXcdGJnIYN510m-13" value="2" style="text;html=1;align=center;verticalAlign=middle;whiteSpace=wrap;rounded=0;fillColor=#dae8fc;strokeColor=#6c8ebf;fontSize=14;fontColor=#333333;" vertex="1" parent="XXgtzVUXcdGJnIYN510m-1">
          <mxGeometry x="40" y="80" width="40" height="40" as="geometry" />
        </mxCell>
        <mxCell id="XXgtzVUXcdGJnIYN510m-14" value="end" style="text;html=1;align=center;verticalAlign=middle;whiteSpace=wrap;rounded=0;fontSize=10;" vertex="1" parent="XXgtzVUXcdGJnIYN510m-1">
          <mxGeometry x="120" y="120" width="40" height="20" as="geometry" />
        </mxCell>
        <mxCell id="XXgtzVUXcdGJnIYN510m-16" value="1" style="text;html=1;align=center;verticalAlign=middle;whiteSpace=wrap;rounded=0;fillColor=#d5e8d4;strokeColor=#82b366;fontSize=14;fontColor=#333333;" vertex="1" parent="XXgtzVUXcdGJnIYN510m-1">
          <mxGeometry x="120" y="80" width="40" height="40" as="geometry" />
        </mxCell>
        <mxCell id="JCCGPlohXca21NlRUDmo-0" value="3" style="text;html=1;align=center;verticalAlign=middle;whiteSpace=wrap;rounded=0;fontSize=10;" vertex="1" parent="XXgtzVUXcdGJnIYN510m-1">
          <mxGeometry x="180" y="140" width="20" height="20" as="geometry" />
        </mxCell>
      </root>
    </mxGraphModel>
  </diagram>
  <diagram name="4" id="Lb7ij49LtrWitA9iESYk">
    <mxGraphModel dx="454" dy="703" grid="1" gridSize="10" guides="1" tooltips="1" connect="1" arrows="1" fold="1" page="1" pageScale="1" pageWidth="300" pageHeight="220" math="0" shadow="0">
      <root>
        <mxCell id="Jlb4eWO6X0MEi0RM9BlG-0" />
        <mxCell id="Jlb4eWO6X0MEi0RM9BlG-1" parent="Jlb4eWO6X0MEi0RM9BlG-0" />
        <mxCell id="Jlb4eWO6X0MEi0RM9BlG-3" value="nums" style="text;html=1;align=center;verticalAlign=middle;whiteSpace=wrap;rounded=0;fontSize=10;" vertex="1" parent="Jlb4eWO6X0MEi0RM9BlG-1">
          <mxGeometry x="200" y="139.97" width="40" height="20" as="geometry" />
        </mxCell>
        <mxCell id="Jlb4eWO6X0MEi0RM9BlG-4" value="2" style="text;html=1;align=center;verticalAlign=middle;whiteSpace=wrap;rounded=0;fillColor=#f5f5f5;strokeColor=#666666;fontSize=14;fontColor=#333333;" vertex="1" parent="Jlb4eWO6X0MEi0RM9BlG-1">
          <mxGeometry x="200" y="59.97" width="40" height="20" as="geometry" />
        </mxCell>
        <mxCell id="Jlb4eWO6X0MEi0RM9BlG-5" value="2" style="text;html=1;align=center;verticalAlign=middle;whiteSpace=wrap;rounded=0;fillColor=#f5f5f5;strokeColor=#666666;fontSize=14;fontColor=#333333;" vertex="1" parent="Jlb4eWO6X0MEi0RM9BlG-1">
          <mxGeometry x="200" y="79.97" width="40" height="20" as="geometry" />
        </mxCell>
        <mxCell id="Jlb4eWO6X0MEi0RM9BlG-7" value="2" style="text;html=1;align=center;verticalAlign=middle;whiteSpace=wrap;rounded=0;fillColor=#f5f5f5;strokeColor=#666666;fontSize=14;fontColor=#333333;" vertex="1" parent="Jlb4eWO6X0MEi0RM9BlG-1">
          <mxGeometry x="200" y="99.97" width="40" height="20" as="geometry" />
        </mxCell>
        <mxCell id="Jlb4eWO6X0MEi0RM9BlG-8" value="0" style="text;html=1;align=center;verticalAlign=middle;whiteSpace=wrap;rounded=0;fontSize=10;" vertex="1" parent="Jlb4eWO6X0MEi0RM9BlG-1">
          <mxGeometry x="180" y="59.97" width="20" height="20" as="geometry" />
        </mxCell>
        <mxCell id="Jlb4eWO6X0MEi0RM9BlG-9" value="1" style="text;html=1;align=center;verticalAlign=middle;whiteSpace=wrap;rounded=0;fontSize=10;" vertex="1" parent="Jlb4eWO6X0MEi0RM9BlG-1">
          <mxGeometry x="180" y="79.97" width="20" height="20" as="geometry" />
        </mxCell>
        <mxCell id="Jlb4eWO6X0MEi0RM9BlG-10" value="2" style="text;html=1;align=center;verticalAlign=middle;whiteSpace=wrap;rounded=0;fontSize=10;" vertex="1" parent="Jlb4eWO6X0MEi0RM9BlG-1">
          <mxGeometry x="180" y="99.97" width="20" height="20" as="geometry" />
        </mxCell>
        <mxCell id="Jlb4eWO6X0MEi0RM9BlG-11" value="3" style="text;html=1;align=center;verticalAlign=middle;whiteSpace=wrap;rounded=0;fillColor=#f5f5f5;strokeColor=#666666;fontSize=14;fontColor=#333333;" vertex="1" parent="Jlb4eWO6X0MEi0RM9BlG-1">
          <mxGeometry x="200" y="119.97" width="40" height="20" as="geometry" />
        </mxCell>
        <mxCell id="Jlb4eWO6X0MEi0RM9BlG-12" value="start" style="text;html=1;align=center;verticalAlign=middle;whiteSpace=wrap;rounded=0;fontSize=10;" vertex="1" parent="Jlb4eWO6X0MEi0RM9BlG-1">
          <mxGeometry x="40" y="99.97" width="40" height="20" as="geometry" />
        </mxCell>
        <mxCell id="Jlb4eWO6X0MEi0RM9BlG-13" value="&lt;font style=&quot;font-size: 10px;&quot;&gt;== 3&lt;/font&gt;" style="edgeStyle=orthogonalEdgeStyle;rounded=0;orthogonalLoop=1;jettySize=auto;html=1;exitX=0.5;exitY=0;exitDx=0;exitDy=0;entryX=0;entryY=0.5;entryDx=0;entryDy=0;fillColor=#dae8fc;strokeColor=#6c8ebf;" edge="1" parent="Jlb4eWO6X0MEi0RM9BlG-1" source="Jlb4eWO6X0MEi0RM9BlG-14" target="Jlb4eWO6X0MEi0RM9BlG-11">
          <mxGeometry relative="1" as="geometry">
            <Array as="points">
              <mxPoint x="60" y="39.97" />
              <mxPoint x="170" y="39.97" />
              <mxPoint x="170" y="129.97" />
            </Array>
          </mxGeometry>
        </mxCell>
        <mxCell id="Jlb4eWO6X0MEi0RM9BlG-14" value="3" style="text;html=1;align=center;verticalAlign=middle;whiteSpace=wrap;rounded=0;fillColor=#dae8fc;strokeColor=#6c8ebf;fontSize=14;fontColor=#333333;" vertex="1" parent="Jlb4eWO6X0MEi0RM9BlG-1">
          <mxGeometry x="40" y="59.97" width="40" height="40" as="geometry" />
        </mxCell>
        <mxCell id="Jlb4eWO6X0MEi0RM9BlG-15" value="end" style="text;html=1;align=center;verticalAlign=middle;whiteSpace=wrap;rounded=0;fontSize=10;" vertex="1" parent="Jlb4eWO6X0MEi0RM9BlG-1">
          <mxGeometry x="120" y="99.97" width="40" height="20" as="geometry" />
        </mxCell>
        <mxCell id="Jlb4eWO6X0MEi0RM9BlG-16" value="1" style="text;html=1;align=center;verticalAlign=middle;whiteSpace=wrap;rounded=0;fillColor=#f5f5f5;strokeColor=#666666;fontSize=14;fontColor=#333333;" vertex="1" parent="Jlb4eWO6X0MEi0RM9BlG-1">
          <mxGeometry x="120" y="59.97" width="40" height="40" as="geometry" />
        </mxCell>
        <mxCell id="Jlb4eWO6X0MEi0RM9BlG-17" value="3" style="text;html=1;align=center;verticalAlign=middle;whiteSpace=wrap;rounded=0;fontSize=10;" vertex="1" parent="Jlb4eWO6X0MEi0RM9BlG-1">
          <mxGeometry x="180" y="119.97" width="20" height="20" as="geometry" />
        </mxCell>
      </root>
    </mxGraphModel>
  </diagram>
</mxfile>
